# xmcd
#
# Track frame offsets:
#	150
#	17754
#	31045
#	53096
#	63753
#	75741
#	92066
#	102643
#	114000
#	127509
#	133763
#	145101
#	162051
#
# Disc length: 2320 seconds
#
# Revision: 0
# Processed by: cddbd v1.5.2PL0 Copyright (c) Steve Scherf et al.
# Submitted via: dBpowerAMP V4.0
#
DISCID=95090e0d
DTITLE=Tom Holliston - Do You Have Any Bread, Lewis?
DYEAR=2019
DGENRE=Country, Punk
TTITLE0=History Aspires the Myth
TTITLE1=Ernst Rohm Vs. The NFL
TTITLE2=Miracle Formula
TTITLE3=Summer is Coming to the Duplexes
TTITLE4=Family Values
TTITLE5=He's Our Man
TTITLE6=Small Problem
TTITLE7=The Fifty Best Albums of All Time
TTITLE8=No Impression
TTITLE9=Pauline
TTITLE10=Maybe Some Day You'll Write a Book
TTITLE11=Other People
TTITLE12=My Hometown
EXTD=
EXTT0=
EXTT1=
EXTT2=
EXTT3=
EXTT4=
EXTT5=
EXTT6=
EXTT7=
EXTT8=
EXTT9=
EXTT10=
EXTT11=
EXTT12=
PLAYORDER=
